<svg xmlns="http://www.w3.org/2000/svg" width="24" height="24" fill="none"><path fill="#9564AA" fill-rule="evenodd" d="M12 4c2.727 0 5.336 1.43 7.766 3.781a23 23 0 0 1 2.24 2.515c.399.516.681.923.836 1.165l.345.539-.345.539c-.154.242-.437.649-.836 1.165-.66.857-1.41 1.713-2.24 2.515C17.336 18.569 14.728 20 12 20s-5.336-1.43-7.766-3.781a23 23 0 0 1-2.24-2.515 18 18 0 0 1-.836-1.165L.813 12l.345-.539c.154-.242.437-.649.836-1.165.66-.857 1.41-1.713 2.24-2.515C6.664 5.431 9.272 4 12 4m8.422 7.517a21 21 0 0 0-2.046-2.298C16.282 7.194 14.106 6 12 6 9.895 6 7.717 7.194 5.624 9.219A21.3 21.3 0 0 0 3.216 12q.165.229.362.483a21 21 0 0 0 2.046 2.298C7.717 16.806 9.894 18 12 18c2.105 0 4.282-1.194 6.376-3.219A21.3 21.3 0 0 0 20.784 12q-.165-.229-.362-.483M8 12a4 4 0 1 0 8 0 4 4 0 0 0-8 0m6 0a2 2 0 1 1-4 0 2 2 0 0 1 4 0" clip-rule="evenodd"/></svg>